<?xml version="1.0" standalone="no"?>
<!DOCTYPE svg PUBLIC "-//W3C//DTD SVG 20010904//EN"
 "http://www.w3.org/TR/2001/REC-SVG-20010904/DTD/svg10.dtd">
<svg version="1.0" xmlns="http://www.w3.org/2000/svg"
 width="512.000000pt" height="512.000000pt" viewBox="0 0 512.000000 512.000000"
 preserveAspectRatio="xMidYMid meet">

    <linearGradient id="gradiente" x1="0%" y1="0%" x2="100%" y2="0%">
        <stop offset="0%" style="stop-color:#8e44ad;stop-opacity:1" />
        <stop offset="100%" style="stop-color:#3498db;stop-opacity:1" />
    </linearGradient>

<g transform="translate(0.000000,512.000000) scale(0.100000,-0.100000)"
   fill="#54ba4e" stroke="none">
<path d="M283 4756 c-137 -43 -246 -166 -273 -305 -14 -74 -14 -3708 0 -3782
23 -120 113 -233 227 -287 l58 -27 2265 0 2265 0 58 27 c114 54 204 167 227
287 14 74 14 3708 0 3782 -23 120 -113 233 -227 287 l-58 27 -2250 2 c-1841 1
-2258 -1 -2292 -11z m4481 -348 c13 -19 16 -61 16 -255 l0 -233 -2220 0 -2220
0 0 233 c0 194 3 236 16 255 l15 22 2189 0 2189 0 15 -22z m16 -2251 c0 -1271
-2 -1425 -16 -1445 l-15 -22 -2189 0 -2189 0 -15 22 c-14 20 -16 174 -16 1445
l0 1423 2220 0 2220 0 0 -1423z"/>
<path d="M685 4299 c-83 -23 -119 -113 -74 -186 55 -88 174 -82 219 12 47 97
-41 204 -145 174z"/>
<path d="M1096 4300 c-50 -15 -96 -73 -96 -120 0 -64 66 -130 130 -130 73 0
139 76 126 146 -8 40 -48 90 -79 99 -43 12 -52 13 -81 5z"/>
<path d="M1506 4299 c-61 -17 -102 -83 -90 -145 12 -67 92 -117 158 -100 37 9
84 62 92 103 16 85 -76 167 -160 142z"/>
<path d="M3014 3136 c-17 -8 -43 -29 -57 -47 -13 -19 -246 -418 -517 -888
-537 -930 -524 -903 -485 -985 36 -76 147 -116 227 -83 21 9 48 33 65 59 56
82 987 1702 1001 1743 48 130 -102 258 -234 201z"/>
<path d="M1480 2954 c-40 -17 -722 -691 -747 -738 -20 -38 -20 -114 0 -152 9
-16 175 -187 369 -381 385 -383 387 -385 472 -362 56 15 83 36 111 84 27 45
32 96 15 142 -6 15 -138 155 -293 310 l-282 283 282 282 c155 156 287 296 292
311 16 43 13 93 -8 135 -23 46 -46 67 -94 87 -45 19 -72 19 -117 -1z"/>
<path d="M3527 2955 c-93 -33 -140 -132 -106 -222 5 -15 137 -155 292 -311
l282 -282 -282 -283 c-154 -155 -286 -292 -292 -304 -19 -37 -13 -103 13 -147
45 -76 151 -111 223 -72 35 18 716 702 733 735 17 33 15 112 -3 147 -9 16
-172 185 -364 376 -395 394 -400 398 -496 363z"/>
</g>
</svg>
